{"title":"Diamant 13 (2010) XviD - Ita Fra Ac3 5.1 - Sub Ita","uid":8455762,"size":1787720754,"categoryP":"video","categoryS":"movies","magnet":"?xt=urn:btih:f415fd291c2e02c50c10663d2e64195b59ef8207&amp;dn=Diamant+13+%282010%29+XviD+-+Ita+Fra+Ac3+5.1+-+Sub+Ita&amp;tr=udp%3A%2F%2Ftracker.openbittorrent.com%3A80&amp;tr=udp%3A%2F%2Fopen.demonii.com%3A1337&amp;tr=udp%3A%2F%2Ftracker.coppersurfer.tk%3A6969&amp;tr=udp%3A%2F%2Fexodus.desync.com%3A6969","seeders":0,"leechers":0,"uploader":null,"files":3,"time":1368061107,"description":"General\nComplete name : Diamond 13 - Diamant 13 (2010)Diamond 13.avi\nFormat : AVI\nFormat/Info : Audio Video Interleave\nFile size : 1.66 GiB\nDuration : 1h 38mn\nOverall bit rate : 2 420 Kbps\nWriting application : VirtualDubMod 1.5.4.1 (build 2178/release)\nWriting library : VirtualDubMod build 2178/release\n\nVideo\nID : 0\nFormat : MPEG-4 Visual\nFormat profile : Advanced Simple@L5\nFormat settings, BVOP : No\nFormat settings, QPel : No\nFormat settings, GMC : No warppoints\nFormat settings, Matrix : Custom\nCodec ID : XVID\nCodec ID/Hint : XviD\nDuration : 1h 38mn\nBit rate : 1 519 Kbps\nWidth : 720 pixels\nHeight : 304 pixels\nDisplay aspect ratio : 2.35:1\nFrame rate : 25.000 fps\nColor space : YUV\nChroma subsampling : 4:2:0\nBit depth : 8 bits\nScan type : Progressive\nBits/(Pixel*Frame) : 0.278\nStream size : 1.04 GiB (63%)\nWriting library : XviD 1.2.1 (UTC 2008-12-04)\n\nAudio #1\nID : 1\nFormat : AC-3\nFormat/Info : Audio Coding 3\nMode extension : CM (complete main)\nCodec ID : 2000\nDuration : 1h 37mn\nBit rate mode : Constant\nBit rate : 448 Kbps\nChannel(s) : 6 channels\nChannel positions : Front: L C R, Side: L R, LFE\nSampling rate : 48.0 KHz\nBit depth : 16 bits\nStream size : 314 MiB (18%)\nAlignment : Aligned on interleaves\nInterleave, duration : 96 ms (2.41 video frames)\nInterleave, preload duration : 96 ms\nLanguage : Italian\n\nAudio #2\nID : 2\nFormat : AC-3\nFormat/Info : Audio Coding 3\nMode extension : CM (complete main)\nCodec ID : 2000\nDuration : 1h 37mn\nBit rate mode : Constant\nBit rate : 448 Kbps\nChannel(s) : 6 channels\nChannel positions : Front: L C R, Side: L R, LFE\nSampling rate : 48.0 KHz\nBit depth : 16 bits\nStream size : 314 MiB (18%)\nAlignment : Aligned on interleaves\nInterleave, duration : 96 ms (2.41 video frames)\nInterleave, preload duration : 96 ms\nLanguage : French","torrent":{"xt":"urn:btih:f415fd291c2e02c50c10663d2e64195b59ef8207","amp;dn":"Diamant+13+%282010%29+XviD+-+Ita+Fra+Ac3+5.1+-+Sub+Ita","amp;tr":["udp%3A%2F%2Ftracker.openbittorrent.com%3A80","udp%3A%2F%2Fopen.demonii.com%3A1337","udp%3A%2F%2Ftracker.coppersurfer.tk%3A6969","udp%3A%2F%2Fexodus.desync.com%3A6969"],"infoHash":"f415fd291c2e02c50c10663d2e64195b59ef8207","infoHashBuffer":{"type":"Buffer","data":[244,21,253,41,28,46,2,197,12,16,102,61,46,100,25,91,89,239,130,7]},"announce":[],"urlList":[]}}